<?xml version="1.0" encoding="UTF-8" standalone="no"?>
<!-- Generator: Adobe Illustrator 16.0.0, SVG Export Plug-In . SVG Version: 6.00 Build 0)  -->

<svg
   version="1.1"
   id="Capa_1"
   x="0px"
   y="0px"
   width="414.33801"
   height="300.49887"
   viewBox="0 0 414.33802 300.49888"
   xml:space="preserve"
   sodipodi:docname="arrow-green.svg"
   inkscape:version="1.2.1 (9c6d41e410, 2022-07-14)"
   xmlns:inkscape="http://www.inkscape.org/namespaces/inkscape"
   xmlns:sodipodi="http://sodipodi.sourceforge.net/DTD/sodipodi-0.dtd"
   xmlns="http://www.w3.org/2000/svg"
   xmlns:svg="http://www.w3.org/2000/svg"><defs
   id="defs39" /><sodipodi:namedview
   id="namedview37"
   pagecolor="#ffffff"
   bordercolor="#666666"
   borderopacity="1.0"
   inkscape:showpageshadow="2"
   inkscape:pageopacity="0.0"
   inkscape:pagecheckerboard="0"
   inkscape:deskcolor="#d1d1d1"
   showgrid="false"
   inkscape:zoom="1.9163053"
   inkscape:cx="104.88934"
   inkscape:cy="150.28921"
   inkscape:window-width="1920"
   inkscape:window-height="1030"
   inkscape:window-x="0"
   inkscape:window-y="0"
   inkscape:window-maximized="1"
   inkscape:current-layer="g4" />
<g
   id="g4"
   transform="translate(-2.296387e-4,-56.920127)">
	<path
   d="M 408.265,162.615 230.506,58.601 c -3.795,-2.222 -8.485,-2.241 -12.304,-0.057 -3.815,2.187 -6.17,6.246 -6.174,10.644 l -0.036,46.966 c -0.213,0.052 -0.38,0.094 -0.495,0.126 -4.442,1.239 -9.163,2.603 -14.854,4.294 -18.457,5.483 -37.417,12.593 -59.668,22.374 -19.309,8.487 -38.201,19.442 -56.15,32.559 -12.826,9.373 -24.894,20.182 -35.867,32.126 -29.858,32.496 -46.217,75.647 -44.882,118.39 0.234,7.488 1.076,14.674 1.869,20.716 0.788,6.007 5.84,10.541 11.898,10.677 0.093,0.002 0.186,0.003 0.277,0.003 5.94,0 11.048,-4.263 12.086,-10.139 3.304,-18.678 8.574,-34.022 16.111,-46.91 9.42,-16.104 22.223,-29.625 37.021,-39.102 12.718,-8.146 26.153,-14.396 41.075,-19.113 17.405,-5.503 36.597,-8.952 58.671,-10.545 8.907,-0.644 18.502,-0.967 30.2,-1.021 0.354,0 1.112,0.007 2.098,0.02 l 0.032,44.29 c 0.003,4.372 2.332,8.413 6.113,10.607 3.782,2.196 8.446,2.214 12.245,0.049 l 178.37,-101.678 c 3.811,-2.172 6.172,-6.21 6.196,-10.597 0.028,-4.384 -2.288,-8.449 -6.073,-10.665 z"
   id="path2"
   style="fill:#258e2a;fill-opacity:1" />
</g>
<g
   id="g6"
   transform="translate(-2.296387e-4,-56.920127)">
</g>
<g
   id="g8"
   transform="translate(-2.296387e-4,-56.920127)">
</g>
<g
   id="g10"
   transform="translate(-2.296387e-4,-56.920127)">
</g>
<g
   id="g12"
   transform="translate(-2.296387e-4,-56.920127)">
</g>
<g
   id="g14"
   transform="translate(-2.296387e-4,-56.920127)">
</g>
<g
   id="g16"
   transform="translate(-2.296387e-4,-56.920127)">
</g>
<g
   id="g18"
   transform="translate(-2.296387e-4,-56.920127)">
</g>
<g
   id="g20"
   transform="translate(-2.296387e-4,-56.920127)">
</g>
<g
   id="g22"
   transform="translate(-2.296387e-4,-56.920127)">
</g>
<g
   id="g24"
   transform="translate(-2.296387e-4,-56.920127)">
</g>
<g
   id="g26"
   transform="translate(-2.296387e-4,-56.920127)">
</g>
<g
   id="g28"
   transform="translate(-2.296387e-4,-56.920127)">
</g>
<g
   id="g30"
   transform="translate(-2.296387e-4,-56.920127)">
</g>
<g
   id="g32"
   transform="translate(-2.296387e-4,-56.920127)">
</g>
<g
   id="g34"
   transform="translate(-2.296387e-4,-56.920127)">
</g>
</svg>
