<?xml version="1.0" encoding="UTF-8" standalone="no"?>
<svg
   data-name="Layer 2"
   viewBox="0 0 32.02 34.5"
   version="1.1"
   id="svg10"
   sodipodi:docname="support.svg"
   width="32.02"
   height="34.5"
   inkscape:version="1.2.1 (9c6d41e410, 2022-07-14)"
   xmlns:inkscape="http://www.inkscape.org/namespaces/inkscape"
   xmlns:sodipodi="http://sodipodi.sourceforge.net/DTD/sodipodi-0.dtd"
   xmlns="http://www.w3.org/2000/svg"
   xmlns:svg="http://www.w3.org/2000/svg">
  <defs
     id="defs14" />
  <sodipodi:namedview
     id="namedview12"
     pagecolor="#ffffff"
     bordercolor="#666666"
     borderopacity="1.0"
     inkscape:showpageshadow="2"
     inkscape:pageopacity="0.0"
     inkscape:pagecheckerboard="0"
     inkscape:deskcolor="#d1d1d1"
     showgrid="false"
     inkscape:zoom="22.685714"
     inkscape:cx="16.001259"
     inkscape:cy="12.518892"
     inkscape:window-width="1920"
     inkscape:window-height="1030"
     inkscape:window-x="0"
     inkscape:window-y="0"
     inkscape:window-maximized="1"
     inkscape:current-layer="svg10" />
  <path
     d="m 27.58,16.32 a 1.25,1.25 0 0 1 -1.25,-1.25 v -3.53 c 0,-5 -4.62,-9 -10.3,-9 -5.68,0 -10.3,4.05 -10.3,9 v 3.53 a 1.25,1.25 0 0 1 -2.5,0 V 11.54 C 3.23,5.18 8.98,0 16.03,0 c 7.05,0 12.8,5.18 12.8,11.54 v 3.53 a 1.24,1.24 0 0 1 -1.25,1.25 z"
     id="path2"
     style="fill:#a343ae;fill-opacity:1" />
  <path
     d="M 24.2,28.08 A 1.25,1.25 0 0 1 22.95,26.83 V 14.96 a 1.25,1.25 0 0 1 1.25,-1.21 c 4.31,0 7.82,3.23 7.82,7.19 0,3.96 -3.51,7.14 -7.82,7.14 z m 1.25,-11.74 v 9.11 A 4.86,4.86 0 0 0 29.51,20.9 4.86,4.86 0 0 0 25.45,16.34 Z M 7.82,28.08 C 3.51,28.08 0,24.86 0,20.9 0,16.94 3.51,13.75 7.82,13.75 A 1.25,1.25 0 0 1 9.07,15 V 26.83 A 1.25,1.25 0 0 1 7.82,28.08 Z M 6.57,16.34 a 4.86,4.86 0 0 0 -4.06,4.56 4.86,4.86 0 0 0 4.06,4.55 z"
     id="path4"
     style="fill:#a343ae;fill-opacity:1" />
  <path
     d="m 23.79,32.15 h -4.14 a 1.25,1.25 0 0 1 0,-2.5 h 4.14 a 2.44,2.44 0 0 0 2.44,-2.44 v -0.55 a 1.25,1.25 0 1 1 2.5,0 v 0.55 a 4.94,4.94 0 0 1 -4.94,4.94 z"
     id="path6"
     style="fill:#a343ae;fill-opacity:1" />
  <path
     d="m 17.51,34.5 h -2.47 a 3.42,3.42 0 0 1 -3.42,-3.42 v -0.14 a 3.42,3.42 0 0 1 3.42,-3.41 h 2.47 a 3.41,3.41 0 0 1 3.41,3.41 v 0.14 a 3.42,3.42 0 0 1 -3.41,3.42 z m -2.45,-4.47 a 0.92,0.92 0 0 0 -0.92,0.91 v 0.14 A 0.92,0.92 0 0 0 15.06,32 h 2.45 a 0.92,0.92 0 0 0 0.91,-0.92 v -0.14 a 0.91,0.91 0 0 0 -0.91,-0.91 z"
     id="path8"
     style="fill:#a343ae;fill-opacity:1" />
</svg>
